HIERARCHY
ROOT SpineBase
{
  OFFSET 0.000000 0.000000 0.000000
  CHANNELS 6 Xposition Yposition Zposition Zrotation Xrotation Yrotation
  JOINT SpineMid
  {
    OFFSET 0.000000 25.316275 0.000000
    CHANNELS 3 Zrotation Xrotation Yrotation
    JOINT SpineShoulder
    {
      OFFSET 0.119797 18.852626 -0.500233
      CHANNELS 3 Zrotation Xrotation Yrotation
      JOINT Neck
      {
        OFFSET 0.094519 6.247699 -0.378693
        CHANNELS 3 Zrotation Xrotation Yrotation
        JOINT Head
        {
          OFFSET 2.779740 11.829120 1.530280
          CHANNELS 3 Zrotation Xrotation Yrotation
          End Site
          {
            OFFSET 0 0 0
          }
        }
      }
      JOINT ShoulderLeft
      {
        OFFSET -6.165180 -3.548526 -10.623792
        CHANNELS 3 Zrotation Xrotation Yrotation
        JOINT ElbowLeft
        {
          OFFSET -1.854598 -15.713920 -5.252346
          CHANNELS 3 Zrotation Xrotation Yrotation
          JOINT WristLeft
          {
            OFFSET 6.434584 -17.781012 -2.865389
            CHANNELS 3 Zrotation Xrotation Yrotation
            JOINT HandLeft
            {
              OFFSET 0.567685 -2.637169 0.163465
              CHANNELS 3 Zrotation Xrotation Yrotation
              JOINT HandTipLeft
              {
                OFFSET 3.390450 -4.508422 -1.001632
                CHANNELS 3 Zrotation Xrotation Yrotation
                End Site
                {
                  OFFSET 0 0 0
                }
              }
              JOINT ThumbLeft
              {
                OFFSET 1.753018 2.950514 -0.763114
                CHANNELS 3 Zrotation Xrotation Yrotation
                End Site
                {
                  OFFSET 0 0 0
                }
              }
            }
          }
        }
      }
      JOINT ShoulderRight
      {
        OFFSET 5.746393 -6.122509 17.076712
        CHANNELS 3 Zrotation Xrotation Yrotation
        JOINT ElbowRight
        {
          OFFSET 3.575748 4.627022 -19.229248
          CHANNELS 3 Zrotation Xrotation Yrotation
          JOINT WristRight
          {
            OFFSET 0.007996 -16.003113 9.556852
            CHANNELS 3 Zrotation Xrotation Yrotation
            JOINT HandRight
            {
              OFFSET -0.081481 -7.099003 -1.918726
              CHANNELS 3 Zrotation Xrotation Yrotation
              JOINT HandTipRight
              {
                OFFSET 0.303378 -4.005104 1.181812
                CHANNELS 3 Zrotation Xrotation Yrotation
                End Site
                {
                  OFFSET 0 0 0
                }
              }
              JOINT ThumbRight
              {
                OFFSET -0.118632 -0.506233 -3.414913
                CHANNELS 3 Zrotation Xrotation Yrotation
                End Site
                {
                  OFFSET 0 0 0
                }
              }
            }
          }
        }
      }
    }
  }
  JOINT HipLeft
  {
    OFFSET -1.338278 -2.252975 -5.567379
    CHANNELS 3 Zrotation Xrotation Yrotation
    JOINT KneeLeft
    {
      OFFSET -2.434226 -24.761235 -2.140902
      CHANNELS 3 Zrotation Xrotation Yrotation
      JOINT AnkleLeft
      {
        OFFSET -5.597436 -61.134563 -0.723621
        CHANNELS 3 Zrotation Xrotation Yrotation
        JOINT FootLeft
        {
          OFFSET 5.241827 -4.538680 -3.178417
          CHANNELS 3 Zrotation Xrotation Yrotation
          End Site
          {
            OFFSET 0 0 0
          }
        }
      }
    }
  }
  JOINT HipRight
  {
    OFFSET 2.005712 3.248048 1.207487
    CHANNELS 3 Zrotation Xrotation Yrotation
    JOINT KneeRight
    {
      OFFSET -8.172955 -20.536817 8.944297
      CHANNELS 3 Zrotation Xrotation Yrotation
      JOINT AnkleRight
      {
        OFFSET -3.590494 -33.054691 6.995721
        CHANNELS 3 Zrotation Xrotation Yrotation
        JOINT FootRight
        {
          OFFSET 7.597675 -3.254744 -4.925137
          CHANNELS 3 Zrotation Xrotation Yrotation
          End Site
          {
            OFFSET 0 0 0
          }
        }
      }
    }
  }
}
MOTION
Frames: 14
Frame Time: 0.033333
-56.014168 93.194998 307.044542 -0.440568 0.281095 -68.236178 0.424413 0.304940 68.236129 -0.000000 0.000000 0.000000 -0.000000 0.000000 0.000000 0.000000 0.000000 0.000000 -1.601106 4.613117 0.054132 3.797370 -7.410040 -1.056613 -4.513455 12.292774 3.678607 -1.355730 -16.942773 -7.652202 0.000000 0.000000 0.000000 0.000000 0.000000 0.000000 -1.735946 -4.091522 -3.544641 4.090058 -0.280485 4.700812 -7.141549 -11.933650 -0.107645 14.537311 18.389202 -2.253919 0.000000 0.000000 0.000000 0.000000 0.000000 0.000000 1.976975 0.641797 68.276023 -0.420651 0.285063 0.039969 -1.434967 -0.275729 -0.929314 0.000000 0.000000 0.000000 3.965630 -1.946359 69.565358 0.872302 4.104238 -1.309737 -0.199984 0.218436 0.813861 0.000000 0.000000 0.000000
-56.140527 93.189062 307.027723 -0.327020 -0.059966 -69.337949 0.059283 0.327145 69.337609 -0.000000 0.000000 0.000000 -0.866921 0.592725 -0.022595 0.000000 0.000000 0.000000 0.637720 4.198817 -0.723910 0.597272 -7.347658 -0.528652 -4.397218 13.252204 3.862055 -2.494081 -18.096672 -8.303268 0.000000 0.000000 0.000000 0.000000 0.000000 0.000000 -12.917203 -22.856420 -19.840766 12.623122 18.668332 16.041489 -3.185714 -21.351363 -2.708549 13.541365 18.169811 -1.957488 0.000000 0.000000 0.000000 0.000000 0.000000 0.000000 1.695591 0.712913 69.378838 -0.367248 0.312474 0.039262 -1.526204 -0.341193 -1.077514 0.000000 0.000000 0.000000 4.567590 -2.161241 71.079807 0.890106 5.071318 -1.709408 -0.198728 0.202787 0.775496 0.000000 0.000000 0.000000
-56.260852 93.196672 307.058045 -0.070500 -0.456220 -70.305251 0.667214 0.273257 70.318355 0.267234 -0.173032 0.040239 -2.185013 2.052302 -0.022612 0.000000 0.000000 0.000000 3.954755 5.295897 -2.331040 -5.262786 -8.209236 0.493366 -5.196773 13.045525 3.814937 -1.507070 -17.413068 -7.871851 0.000000 0.000000 0.000000 0.000000 0.000000 0.000000 -69.626483 -37.432850 -86.809196 21.788075 74.501091 38.419824 1.304460 -32.389595 -7.110333 6.717474 21.660705 1.713520 0.000000 0.000000 0.000000 0.000000 0.000000 0.000000 1.271024 0.649543 70.350273 -0.294890 0.331781 0.037510 -1.934088 -0.828559 -1.469510 0.000000 0.000000 0.000000 4.504738 -2.221162 72.235753 0.823776 5.420832 -1.883186 -0.174958 0.228648 0.799263 0.000000 0.000000 0.000000
-56.375704 93.196710 307.134618 0.292247 -0.875642 -71.342085 0.821294 0.415724 71.372799 0.313989 -0.210993 0.066008 -3.365671 2.772768 0.027484 0.000000 0.000000 0.000000 6.090930 5.368798 -3.414321 -8.892874 -8.456297 1.153727 -5.694782 13.324582 3.932577 -1.901212 -17.479743 -7.913351 0.000000 0.000000 0.000000 0.000000 0.000000 0.000000 -92.347214 -21.929958 -116.175135 -157.024223 75.033047 -127.708787 5.279290 -41.522221 -12.083606 -4.111171 27.819815 9.093714 0.000000 0.000000 0.000000 0.000000 0.000000 0.000000 0.771864 0.465932 71.396054 -0.221745 0.345990 0.034801 -2.327934 -1.654160 -2.265881 0.000000 0.000000 0.000000 3.686408 -2.083446 73.175699 0.660282 5.015746 -1.776542 -0.143265 0.303004 0.923466 0.000000 0.000000 0.000000
-56.492355 93.199652 307.223701 0.699894 -1.266711 -72.063575 0.887244 0.501465 72.114244 0.335586 -0.215812 0.087736 -4.401601 3.154627 0.123275 0.000000 0.000000 0.000000 5.719991 5.288818 -3.464386 -8.753663 -7.722691 1.251684 -6.479022 14.049695 4.216463 -1.742811 -18.448044 -8.187590 0.000000 0.000000 0.000000 0.000000 0.000000 0.000000 -94.398436 -14.477944 -121.958294 -162.998992 61.507360 -113.475972 4.418647 -47.170042 -17.958193 -14.787810 32.160078 17.053672 0.000000 0.000000 0.000000 0.000000 0.000000 0.000000 0.290700 0.230153 72.126271 -0.161245 0.356069 0.034036 -2.478245 -2.546248 -3.324824 0.000000 0.000000 0.000000 2.121180 -1.711657 73.504467 0.369254 3.803372 -1.387384 -0.127718 0.442783 1.223351 0.000000 0.000000 0.000000
-56.597160 93.202573 307.331513 1.122907 -1.601439 -72.593286 0.881463 0.558684 72.665526 0.339510 -0.196423 0.105940 -5.168694 3.139673 0.237984 0.000000 0.000000 0.000000 5.535480 4.535306 -3.454431 -8.729995 -6.305404 1.428626 -5.919354 13.581716 3.980628 -2.672422 -18.743065 -8.704594 0.000000 0.000000 0.000000 0.000000 0.000000 0.000000 -91.993868 -10.967314 -122.563269 -164.679957 52.112946 -104.858646 -0.768281 -51.287689 -23.741730 -21.954532 35.916673 22.344301 0.000000 0.000000 0.000000 0.000000 0.000000 0.000000 -0.096817 -0.039913 72.667486 -0.109818 0.398795 0.031441 -3.527932 -3.233727 -3.544080 0.000000 0.000000 0.000000 1.292677 -3.696857 73.388988 2.071365 3.911639 -0.742185 -0.131926 0.608439 1.611923 0.000000 0.000000 0.000000
-56.718186 93.209520 307.428192 1.450331 -1.791616 -72.853019 0.777161 0.574363 72.941023 0.319183 -0.142755 0.114640 -5.380101 2.401516 0.377879 0.000000 0.000000 0.000000 4.638663 5.176910 -3.328533 -7.969088 -6.899835 1.226633 -6.392563 12.848737 3.840314 -0.626087 -16.699157 -7.090738 0.000000 0.000000 0.000000 0.000000 0.000000 0.000000 -87.129560 -9.654641 -120.529064 -162.818908 46.224792 -100.235931 -5.121939 -53.176856 -29.051307 -26.817091 34.581317 26.869544 0.000000 0.000000 0.000000 0.000000 0.000000 0.000000 -0.259890 -0.236804 72.937188 -0.087778 0.445349 0.032071 -4.410061 -3.968386 -4.019254 0.000000 0.000000 0.000000 0.466000 -3.440056 73.498664 1.734978 3.230901 -0.590180 -0.189493 0.859330 2.276819 0.000000 0.000000 0.000000
-56.827854 93.211358 307.512100 1.752258 -1.914505 -72.741845 0.651147 0.575287 72.843555 0.319040 -0.101757 0.122423 -5.579698 1.539033 0.527382 0.000000 0.000000 0.000000 5.412407 4.656131 -3.670106 -9.430923 -6.638827 1.533334 -5.343817 13.966458 4.030398 -2.015878 -15.987953 -6.048497 0.000000 0.000000 0.000000 0.000000 0.000000 0.000000 -78.609446 -10.355611 -114.313876 -158.051525 46.731391 -98.919845 -2.358624 -51.653300 -33.617848 -34.693916 32.069057 31.514801 0.000000 0.000000 0.000000 0.000000 0.000000 0.000000 -0.327650 -0.404402 72.834840 -0.094819 0.517144 0.032909 -7.627476 -4.261035 -2.279064 0.000000 0.000000 0.000000 0.112632 -0.964989 74.080058 -0.811326 2.326912 -1.270647 -0.273389 1.136578 3.040233 0.000000 0.000000 0.000000
-56.929280 93.204907 307.545777 2.015849 -2.087560 -72.456352 0.555131 0.510773 72.571765 0.295619 -0.080115 0.127299 -5.410898 1.274595 0.546227 0.000000 0.000000 0.000000 5.470105 5.062405 -3.829358 -9.932045 -7.167807 1.565965 -3.454910 15.853674 4.335930 -3.924650 -17.868592 -7.145875 0.000000 0.000000 0.000000 0.000000 0.000000 0.000000 -76.478997 -10.900538 -112.114145 -158.456127 43.483877 -95.824563 0.377044 -47.257381 -39.751064 -39.271753 24.360469 34.623673 0.000000 0.000000 0.000000 0.000000 0.000000 0.000000 -0.421976 -0.504744 72.557083 -0.142822 0.558313 0.039263 -8.337805 -3.787116 -1.274688 0.000000 0.000000 0.000000 0.059479 3.243997 75.153005 -6.188839 1.568717 -2.893696 0.754263 1.245939 3.931149 0.000000 0.000000 0.000000
-57.008903 93.184405 307.561467 2.204584 -2.227492 -71.978000 0.447619 0.432796 72.103164 0.274909 -0.043804 0.128253 -4.780842 0.988748 0.499935 0.000000 0.000000 0.000000 4.942607 5.652412 -3.745597 -9.447380 -7.828446 1.377365 -1.187006 15.398640 3.961542 -4.613201 -17.921365 -7.837513 0.000000 0.000000 0.000000 0.000000 0.000000 0.000000 -75.138248 -11.292369 -110.693478 -157.842459 41.287782 -94.870622 4.283022 -43.035270 -44.677209 -37.041239 16.252755 36.729680 0.000000 0.000000 0.000000 0.000000 0.000000 0.000000 -0.494152 -0.516645 72.079020 -0.236533 0.572515 0.051180 -7.037981 -2.916902 -1.195942 0.000000 0.000000 0.000000 0.137558 8.663350 76.414619 -12.763379 0.833754 -5.045409 1.815886 1.410093 4.788572 0.000000 0.000000 0.000000
-57.067062 93.173288 307.575750 2.383263 -2.432512 -71.299040 0.489513 0.402420 71.438526 0.274309 -0.068251 0.136574 -3.839857 1.181579 0.342122 0.000000 0.000000 0.000000 4.174723 6.577948 -3.645887 -8.548890 -8.625654 1.111164 -0.067541 13.989209 3.547858 -4.466735 -16.187019 -7.333455 0.000000 0.000000 0.000000 0.000000 0.000000 0.000000 -73.754599 -11.301391 -109.205666 -156.477945 40.344344 -95.028851 9.433852 -38.453283 -49.281490 -36.383406 9.873453 38.273246 0.000000 0.000000 0.000000 0.000000 0.000000 0.000000 -0.731405 -0.485161 71.390589 -0.307546 0.544440 0.065563 -5.465060 -2.282899 -1.566099 0.000000 0.000000 0.000000 0.389566 14.506158 77.693575 -19.923611 0.777029 -7.557185 3.025699 1.429434 5.681048 0.000000 0.000000 0.000000
-57.110930 93.168222 307.605479 2.586062 -2.660207 -70.617904 0.550163 0.431413 70.774193 0.298870 -0.069267 0.147963 -3.127428 1.378247 0.189932 0.000000 0.000000 0.000000 4.008748 6.468695 -3.667494 -8.744980 -8.018284 1.228780 0.464204 12.626645 3.136354 -5.561388 -14.971886 -6.987090 0.000000 0.000000 0.000000 0.000000 0.000000 0.000000 -73.215581 -11.291526 -108.270688 -154.972186 38.701671 -95.762910 12.248747 -33.198414 -53.814703 -33.897454 2.008716 39.832970 0.000000 0.000000 0.000000 0.000000 0.000000 0.000000 -1.040593 -0.480437 70.699881 -0.364878 0.499452 0.079246 -3.509331 -1.824164 -2.390369 0.000000 0.000000 0.000000 0.372837 20.003873 78.781053 -26.598225 0.646919 -9.888563 4.113034 1.622401 6.451066 0.000000 0.000000 0.000000
-57.133294 93.146851 307.649745 2.828795 -2.823564 -69.985781 0.633521 0.481733 70.160431 0.319791 -0.053514 0.160387 -3.026996 1.547949 0.113207 0.000000 0.000000 0.000000 3.450570 6.452543 -3.571736 -8.306592 -7.811313 1.126743 0.364139 10.805683 2.762908 -5.066092 -12.325995 -5.673839 0.000000 0.000000 0.000000 0.000000 0.000000 0.000000 -72.818010 -11.172639 -107.564779 -153.335716 37.215764 -96.723065 12.021140 -31.535727 -55.374717 -32.610721 1.132682 39.809492 0.000000 0.000000 0.000000 0.000000 0.000000 0.000000 -1.323991 -0.555108 70.060850 -0.411376 0.463310 0.089426 -0.840031 -1.497836 -3.788806 0.000000 0.000000 0.000000 0.348923 24.253751 79.544830 -31.922755 0.934148 -11.771501 5.075798 1.645605 7.194670 0.000000 0.000000 0.000000
-57.160674 93.147941 307.663713 3.088706 -3.049313 -69.419689 0.657824 0.497726 69.614977 0.320770 -0.031639 0.170612 -2.839625 1.660745 0.047726 0.000000 0.000000 0.000000 2.830770 6.720280 -3.469206 -7.966963 -7.784853 1.042242 1.091663 10.114825 2.550056 -5.707887 -11.301389 -5.239503 0.000000 0.000000 0.000000 0.000000 0.000000 0.000000 -72.535712 -11.159803 -106.871092 -152.436614 36.282597 -97.175869 12.208365 -29.110581 -57.342884 -30.286993 -0.485347 40.468379 0.000000 0.000000 0.000000 0.000000 0.000000 0.000000 -1.674856 -0.654011 69.493316 -0.409438 0.432617 0.095145 0.178100 -1.431201 -4.369484 0.000000 0.000000 0.000000 0.101948 26.491267 79.670629 -34.764171 0.774485 -12.748980 5.513185 1.889666 7.678838 0.000000 0.000000 0.000000
